<?xml version="1.0" standalone="no"?>
<!DOCTYPE svg PUBLIC "-//W3C//DTD SVG 20010904//EN"
 "http://www.w3.org/TR/2001/REC-SVG-20010904/DTD/svg10.dtd">
<svg version="1.0" xmlns="http://www.w3.org/2000/svg"
 width="260.000000pt" height="260.000000pt" viewBox="0 0 260.000000 260.000000"
 preserveAspectRatio="xMidYMid meet">
<metadata>
Created by potrace 1.14, written by Peter Selinger 2001-2017
</metadata>
<g transform="translate(0.000000,260.000000) scale(0.100000,-0.100000)"
fill="#000000" stroke="none">
<path d="M1180 2400 c-235 -51 -424 -153 -591 -319 -174 -175 -286 -392 -319
-620 -18 -120 -7 -375 19 -464 118 -399 382 -676 763 -801 335 -109 705 -53
998 151 81 57 230 202 230 224 0 9 -18 29 -40 44 l-41 28 -82 -81 c-192 -191
-409 -287 -678 -299 -106 -5 -144 -2 -235 16 -311 63 -556 243 -707 521 -171
312 -162 679 24 1007 51 89 185 235 274 298 417 294 957 252 1321 -103 52 -51
89 -80 97 -76 29 17 77 57 77 64 0 4 -31 39 -69 78 -223 228 -521 354 -834
351 -77 -1 -154 -8 -207 -19z"/>
<path d="M1295 2208 c-203 -21 -434 -133 -573 -280 -105 -110 -194 -270 -233
-418 -19 -70 -23 -111 -23 -230 0 -159 19 -252 74 -377 230 -514 854 -709
1344 -419 75 44 236 189 236 212 0 16 -59 73 -77 74 -6 0 -24 -15 -40 -34 -73
-89 -222 -186 -358 -232 -74 -26 -92 -28 -245 -28 -183 -1 -230 9 -373 80
-205 101 -354 286 -423 524 -25 89 -26 307 0 400 21 76 81 206 123 269 97 140
254 253 438 313 78 26 298 36 387 18 153 -29 324 -122 431 -233 l57 -60 40 28
c22 15 40 35 40 45 0 46 -215 218 -342 274 -74 33 -191 64 -268 71 -36 3 -78
7 -95 9 -16 2 -70 -1 -120 -6z"/>
<path d="M1234 1991 c-336 -82 -566 -373 -566 -714 2 -386 298 -697 692 -724
138 -9 304 35 429 115 63 40 171 139 171 157 0 13 -64 75 -77 75 -3 0 -34 -26
-67 -58 -73 -70 -131 -105 -229 -139 -61 -22 -89 -26 -187 -25 -187 0 -311 51
-440 182 -232 235 -227 616 9 850 74 73 165 128 256 156 74 22 270 26 330 6
116 -38 197 -86 265 -156 25 -25 53 -46 62 -46 21 0 78 47 78 65 0 36 -184
177 -289 221 -125 53 -304 67 -437 35z"/>
<path d="M1291 1790 c-165 -24 -343 -184 -395 -354 -24 -80 -25 -235 -1 -308
52 -156 168 -277 327 -340 81 -32 270 -32 353 0 76 30 139 70 189 121 44 45
43 57 -8 96 l-36 27 -44 -40 c-74 -69 -144 -99 -251 -108 -306 -27 -521 287
-391 571 31 68 115 152 192 190 55 28 67 30 169 30 98 0 116 -3 167 -27 32
-15 79 -47 106 -72 l49 -46 42 30 c22 17 41 36 41 44 0 24 -103 110 -171 143
-104 50 -200 63 -338 43z"/>
</g>
</svg>
